<svg width="275" height="50" viewBox="0 0 275 50" fill="none" xmlns="http://www.w3.org/2000/svg">
<path d="M48.2199 23.6726C45.649 20.5481 41.2201 20.0695 37.4482 19.6098C36.5474 19.4847 35.6467 19.3815 34.7459 19.3002C35.3377 17.6897 35.7653 16.0236 36.022 14.3271C36.3222 12.047 36.1721 9.16649 33.8263 7.98425C30.5799 6.34215 26.2355 8.82867 23.8147 10.9023C21.006 13.3136 19.1331 16.6343 18.5226 20.2853C17.8565 24.5734 19.3108 28.6081 20.6902 32.6052C21.8067 35.8799 23.2141 39.924 21.6284 43.2925C20.0427 46.661 16.0737 46.8299 13.1837 45.1691C9.89032 43.2081 8.74552 38.9951 8.63295 35.4108C8.41146 31.5955 8.92431 27.7732 10.1436 24.1511C11.4854 20.4824 14 17.9771 16.8243 15.4062C19.4047 13.0604 21.6942 10.1611 21.2062 6.4642C20.9587 4.83505 20.1695 3.33689 18.9659 2.21157C17.7622 1.08625 16.2144 0.399446 14.5724 0.262031C12.8581 0.0837843 11.1256 0.263639 9.4846 0.790247C7.84348 1.31677 6.32977 2.17851 5.03925 3.3209C3.78009 4.4262 2.75386 5.77132 2.0205 7.27779C1.28705 8.78417 0.86114 10.4216 0.767683 12.0945C0.674227 13.7673 0.915015 15.442 1.47611 17.0208C2.03712 18.5995 2.90718 20.0506 4.03526 21.2893C4.92534 22.2809 5.979 23.1125 7.15042 23.7477C6.33183 26.2503 5.84605 28.8499 5.70542 31.4793C5.47088 35.3733 5.64913 39.3892 7.39443 42.9547C8.16352 44.6142 9.34209 46.0508 10.8194 47.1292C12.2968 48.2077 14.0242 48.8926 15.8391 49.1193C17.5532 49.3558 19.2981 49.037 20.8178 48.2096C22.3375 47.3822 23.5522 46.0897 24.2839 44.5216C25.8227 41.0875 25.2221 37.2029 24.1149 33.7312C23.1109 30.5316 21.6096 27.2569 21.3001 23.879C24.193 22.6162 27.331 22.0135 30.486 22.115C29.3975 24.9957 28.4312 28.1483 29.3225 31.1415C30.5236 35.148 34.6333 36.9684 38.5741 36.9684C42.3274 36.9684 46.3995 35.7016 48.5296 32.3988C49.418 31.1025 49.8675 29.5554 49.8117 27.9847C49.7559 26.4141 49.1981 24.9027 48.2199 23.6726ZM7.32876 5.18806C9.69322 3.31152 13.7936 1.98847 16.5429 3.85573C17.1552 4.27664 17.6441 4.85328 17.9591 5.52633C18.2742 6.19929 18.4039 6.94408 18.335 7.68396C18.1084 9.3928 17.272 10.9624 15.9798 12.1034C14.7319 13.3701 13.3151 14.4679 12.0672 15.7346C10.6859 17.1427 9.51364 18.7416 8.58604 20.4824C8.51099 20.6231 8.4547 20.7638 8.37965 20.9047C7.06992 20.0941 5.97239 18.9829 5.17827 17.6632C4.38416 16.3434 3.91626 14.8533 3.81351 13.3165C3.71076 11.7797 3.97603 10.2406 4.58743 8.82688C5.19882 7.41324 6.13857 6.16578 7.32876 5.18806ZM25.2596 19.4597C23.9776 19.688 22.7207 20.04 21.5064 20.5105C21.8406 18.7602 22.5312 17.0974 23.5351 15.6253C24.5391 14.1532 25.8352 12.9032 27.3426 11.9532C28.525 11.2026 30.9363 9.87956 32.4001 10.5364C33.1508 10.8742 33.1883 11.8594 33.1977 12.5726C33.1053 14.8093 32.6028 17.0103 31.7152 19.0655C29.5556 18.9797 27.3928 19.1117 25.2596 19.4597ZM45.283 31.6576C42.6464 34.2848 36.8383 34.8103 33.8733 32.5114C30.9082 30.2126 32.3063 25.7556 33.4416 22.7437L33.6762 22.1244C35.4121 22.2558 37.1291 22.4716 38.8463 22.7249C40.8824 23.0346 43.0874 23.3629 44.8326 24.5453C45.4042 24.9306 45.8797 25.4421 46.2225 26.0403C46.5653 26.6384 46.7661 27.3073 46.8097 27.9953C46.8532 28.6833 46.7382 29.3721 46.4734 30.0087C46.2088 30.6453 45.8015 31.2126 45.283 31.667V31.6576Z" fill="white" fill-opacity="0.5"/>
<path d="M273.893 17.4244V20.287H262.5V17.4244H273.893ZM265.82 12.1572H269.198V33.1113C269.198 34.0654 269.337 34.7811 269.614 35.2582C269.9 35.7258 270.262 36.0406 270.701 36.2029C271.15 36.3556 271.622 36.4319 272.118 36.4319C272.491 36.4319 272.795 36.4128 273.034 36.3746C273.273 36.3269 273.464 36.2887 273.607 36.2602L274.294 39.2945C274.065 39.3803 273.745 39.4662 273.335 39.5521C272.924 39.6475 272.404 39.6952 271.775 39.6952C270.821 39.6952 269.885 39.49 268.97 39.0798C268.063 38.6695 267.309 38.0445 266.708 37.2048C266.117 36.365 265.82 35.3059 265.82 34.0273V12.1572Z" fill="white" fill-opacity="0.5"/>
<path d="M243.121 39.4092V17.4246H246.384V20.7452H246.613C247.014 19.6575 247.739 18.7748 248.788 18.0973C249.838 17.4199 251.021 17.0811 252.338 17.0811C252.586 17.0811 252.897 17.0859 253.268 17.0954C253.641 17.1049 253.922 17.1193 254.113 17.1383V20.5734C253.998 20.5448 253.736 20.5019 253.325 20.4446C252.925 20.3779 252.501 20.3444 252.052 20.3444C250.984 20.3444 250.029 20.5687 249.19 21.0171C248.36 21.4561 247.701 22.0668 247.214 22.8492C246.737 23.6221 246.498 24.5047 246.498 25.4971V39.4092H243.121Z" fill="white" fill-opacity="0.5"/>
<path d="M222.043 39.9243C220.65 39.9243 219.386 39.6619 218.25 39.1371C217.114 38.6027 216.213 37.8346 215.545 36.8328C214.877 35.8213 214.543 34.5999 214.543 33.1687C214.543 31.909 214.791 30.8881 215.287 30.1057C215.784 29.3137 216.447 28.6935 217.277 28.245C218.107 27.7965 219.023 27.4625 220.025 27.2431C221.037 27.0141 222.053 26.8328 223.074 26.6992C224.41 26.5274 225.492 26.3986 226.322 26.3127C227.162 26.2173 227.773 26.0599 228.155 25.8404C228.546 25.6209 228.742 25.2393 228.742 24.6954V24.5809C228.742 23.1687 228.355 22.0714 227.582 21.289C226.819 20.5065 225.659 20.1153 224.104 20.1153C222.491 20.1153 221.227 20.4683 220.311 21.1744C219.395 21.8805 218.751 22.6343 218.379 23.4359L215.173 22.2908C215.746 20.955 216.509 19.9149 217.463 19.1706C218.427 18.4168 219.477 17.892 220.611 17.5962C221.757 17.2909 222.883 17.1382 223.99 17.1382C224.695 17.1382 225.507 17.224 226.422 17.3959C227.348 17.558 228.241 17.8967 229.099 18.412C229.968 18.9273 230.688 19.7049 231.261 20.745C231.833 21.7851 232.119 23.1782 232.119 24.9244V39.4091H228.742V36.4319H228.569C228.341 36.9091 227.959 37.4196 227.425 37.9634C226.891 38.5073 226.179 38.9701 225.292 39.3518C224.405 39.7335 223.321 39.9243 222.043 39.9243ZM222.558 36.8899C223.894 36.8899 225.02 36.6276 225.936 36.1028C226.862 35.578 227.558 34.9005 228.026 34.0703C228.503 33.2402 228.742 32.3671 228.742 31.4511V28.3595C228.598 28.5312 228.284 28.6887 227.797 28.8319C227.32 28.9654 226.766 29.0847 226.137 29.1896C225.516 29.285 224.911 29.371 224.318 29.4473C223.737 29.5141 223.264 29.5713 222.902 29.619C222.024 29.7335 221.204 29.9196 220.44 30.1772C219.687 30.4254 219.076 30.8022 218.608 31.3079C218.15 31.8042 217.921 32.4816 217.921 33.3404C217.921 34.514 218.355 35.4014 219.224 36.0025C220.101 36.5942 221.213 36.8899 222.558 36.8899Z" fill="white" fill-opacity="0.5"/>
<path d="M186.176 47.6532V17.4245H189.44V20.9168H189.84C190.088 20.5351 190.431 20.0485 190.871 19.4569C191.319 18.8557 191.958 18.3214 192.788 17.8539C193.628 17.3767 194.764 17.1382 196.195 17.1382C198.046 17.1382 199.678 17.601 201.09 18.5265C202.502 19.4521 203.605 20.7641 204.396 22.4626C205.188 24.161 205.585 26.1649 205.585 28.474C205.585 30.8022 205.188 32.8204 204.396 34.5283C203.605 36.2268 202.507 37.5436 201.105 38.4787C199.702 39.4042 198.084 39.867 196.252 39.867C194.84 39.867 193.709 39.6332 192.86 39.1657C192.011 38.6887 191.357 38.1495 190.9 37.5483C190.441 36.9376 190.088 36.4319 189.84 36.0312H189.554V47.6532H186.176ZM189.497 28.4168C189.497 30.077 189.74 31.5417 190.227 32.8108C190.713 34.0703 191.424 35.0579 192.359 35.7735C193.294 36.4797 194.439 36.8328 195.794 36.8328C197.207 36.8328 198.385 36.4606 199.329 35.7163C200.284 34.9625 200.999 33.9511 201.476 32.682C201.963 31.4033 202.206 29.9817 202.206 28.4168C202.206 26.871 201.968 25.4778 201.491 24.2374C201.023 22.9873 200.312 21.9998 199.358 21.2746C198.414 20.5399 197.225 20.1725 195.794 20.1725C194.42 20.1725 193.265 20.5208 192.331 21.2174C191.395 21.9044 190.69 22.8682 190.212 24.1086C189.735 25.3395 189.497 26.7755 189.497 28.4168Z" fill="white" fill-opacity="0.5"/>
<path d="M165.097 39.9243C163.705 39.9243 162.44 39.6619 161.305 39.1371C160.169 38.6027 159.268 37.8346 158.599 36.8328C157.932 35.8213 157.598 34.5999 157.598 33.1687C157.598 31.909 157.845 30.8881 158.342 30.1057C158.838 29.3137 159.501 28.6935 160.332 28.245C161.162 27.7965 162.078 27.4625 163.079 27.2431C164.09 27.0141 165.107 26.8328 166.128 26.6992C167.464 26.5274 168.547 26.3986 169.377 26.3127C170.217 26.2173 170.827 26.0599 171.209 25.8404C171.6 25.6209 171.796 25.2393 171.796 24.6954V24.5809C171.796 23.1687 171.41 22.0714 170.637 21.289C169.873 20.5065 168.714 20.1153 167.159 20.1153C165.546 20.1153 164.282 20.4683 163.366 21.1744C162.449 21.8805 161.806 22.6343 161.433 23.4359L158.228 22.2908C158.799 20.955 159.563 19.9149 160.518 19.1706C161.481 18.4168 162.53 17.892 163.666 17.5962C164.812 17.2909 165.937 17.1382 167.044 17.1382C167.75 17.1382 168.561 17.224 169.477 17.3959C170.403 17.558 171.294 17.8967 172.154 18.412C173.022 18.9273 173.743 19.7049 174.315 20.745C174.887 21.7851 175.174 23.1782 175.174 24.9244V39.4091H171.796V36.4319H171.624C171.395 36.9091 171.013 37.4196 170.479 37.9634C169.944 38.5073 169.234 38.9701 168.346 39.3518C167.459 39.7335 166.376 39.9243 165.097 39.9243ZM165.613 36.8899C166.949 36.8899 168.074 36.6276 168.99 36.1028C169.916 35.578 170.613 34.9005 171.08 34.0703C171.557 33.2402 171.796 32.3671 171.796 31.4511V28.3595C171.653 28.5312 171.338 28.6887 170.851 28.8319C170.374 28.9654 169.82 29.0847 169.191 29.1896C168.57 29.285 167.965 29.371 167.373 29.4473C166.791 29.5141 166.319 29.5713 165.956 29.619C165.079 29.7335 164.258 29.9196 163.495 30.1772C162.74 30.4254 162.13 30.8022 161.662 31.3079C161.205 31.8042 160.975 32.4816 160.975 33.3404C160.975 34.514 161.409 35.4014 162.278 36.0025C163.156 36.5942 164.267 36.8899 165.613 36.8899Z" fill="white" fill-opacity="0.5"/>
<path d="M148.709 17.4244V20.287H137.316V17.4244H148.709ZM140.637 12.1572H144.015V33.1113C144.015 34.0654 144.153 34.7811 144.429 35.2582C144.716 35.7258 145.078 36.0406 145.518 36.2029C145.966 36.3556 146.438 36.4319 146.935 36.4319C147.306 36.4319 147.612 36.4128 147.85 36.3746C148.089 36.3269 148.28 36.2887 148.423 36.2602L149.11 39.2945C148.881 39.3803 148.562 39.4662 148.151 39.5521C147.74 39.6475 147.22 39.6952 146.591 39.6952C145.636 39.6952 144.702 39.49 143.785 39.0798C142.879 38.6695 142.125 38.0445 141.524 37.2048C140.932 36.365 140.637 35.3059 140.637 34.0273V12.1572Z" fill="white" fill-opacity="0.5"/>
<path d="M120.072 39.867C117.954 39.867 116.127 39.3995 114.591 38.4644C113.064 37.5197 111.885 36.2029 111.055 34.514C110.234 32.8156 109.824 30.8404 109.824 28.5885C109.824 26.3366 110.234 24.3518 111.055 22.6343C111.885 20.9073 113.04 19.5618 114.518 18.5981C116.008 17.6249 117.744 17.1382 119.729 17.1382C120.874 17.1382 122.005 17.329 123.121 17.7107C124.238 18.0924 125.253 18.7126 126.169 19.5714C127.086 20.4206 127.816 21.5465 128.359 22.9492C128.903 24.3518 129.175 26.079 129.175 28.1305V29.5617H112.229V26.642H125.74C125.74 25.4015 125.492 24.2947 124.996 23.3213C124.509 22.3481 123.812 21.58 122.906 21.017C122.009 20.454 120.951 20.1725 119.729 20.1725C118.384 20.1725 117.219 20.5065 116.237 21.1744C115.263 21.8328 114.514 22.6916 113.99 23.7507C113.464 24.8099 113.202 25.9453 113.202 27.1572V29.1037C113.202 30.7641 113.488 32.1715 114.061 33.3261C114.643 34.4711 115.449 35.3442 116.48 35.9453C117.511 36.5369 118.708 36.8328 120.072 36.8328C120.959 36.8328 121.761 36.7086 122.477 36.4606C123.202 36.2029 123.827 35.8213 124.352 35.3156C124.876 34.8003 125.282 34.161 125.569 33.3976L128.832 34.3136C128.489 35.4205 127.911 36.3938 127.1 37.2335C126.289 38.0636 125.287 38.7125 124.095 39.1801C122.902 39.6381 121.561 39.867 120.072 39.867Z" fill="white" fill-opacity="0.5"/>
<path d="M91.7754 39.867C89.657 39.867 87.8298 39.3995 86.294 38.4644C84.767 37.5197 83.5886 36.2029 82.7585 34.514C81.9374 32.8156 81.5273 30.8404 81.5273 28.5885C81.5273 26.3366 81.9374 24.3518 82.7585 22.6343C83.5886 20.9073 84.7429 19.5618 86.2225 18.5981C87.711 17.6249 89.447 17.1382 91.4323 17.1382C92.5768 17.1382 93.708 17.329 94.8239 17.7107C95.9407 18.0924 96.9566 18.7126 97.8724 19.5714C98.7891 20.4206 99.5191 21.5465 100.062 22.9492C100.606 24.3518 100.879 26.079 100.879 28.1305V29.5617H83.9317V26.642H97.4435C97.4435 25.4015 97.1951 24.2947 96.6993 23.3213C96.2123 22.3481 95.5163 21.58 94.6095 21.017C93.7124 20.454 92.6537 20.1725 91.4323 20.1725C90.0867 20.1725 88.9226 20.5065 87.9397 21.1744C86.9668 21.8328 86.2171 22.6916 85.6927 23.7507C85.1673 24.8099 84.9055 25.9453 84.9055 27.1572V29.1037C84.9055 30.7641 85.1914 32.1715 85.7642 33.3261C86.3458 34.4711 87.1526 35.3442 88.1828 35.9453C89.2138 36.5369 90.4111 36.8328 91.7754 36.8328C92.6626 36.8328 93.464 36.7086 94.1797 36.4606C94.9052 36.2029 95.5306 35.8213 96.0551 35.3156C96.5796 34.8003 96.9852 34.161 97.272 33.3976L100.535 34.3136C100.192 35.4205 99.6138 36.3938 98.8034 37.2335C97.9921 38.0636 96.9905 38.7125 95.7978 39.1801C94.605 39.6381 93.2639 39.867 91.7754 39.867Z" fill="white" fill-opacity="0.5"/>
<path d="M73.894 17.4243V20.2869H62.043V17.4243H73.894ZM65.5925 39.4089V14.39C65.5925 13.1305 65.8884 12.0809 66.4799 11.2412C67.0716 10.4015 67.8397 9.77172 68.7843 9.35188C69.7289 8.93204 70.7261 8.72217 71.7757 8.72217C72.6059 8.72217 73.2833 8.78891 73.8081 8.92248C74.3329 9.05614 74.7242 9.18016 74.9818 9.2947L74.0085 12.2145C73.8367 12.1573 73.5982 12.0857 73.2929 11.9998C72.997 11.9139 72.6059 11.871 72.1192 11.871C71.0028 11.871 70.1966 12.1524 69.7003 12.7154C69.2137 13.2784 68.9704 14.1038 68.9704 15.1916V39.4089H65.5925Z" fill="white" fill-opacity="0.5"/>
</svg>
