<svg width="721" height="226" viewBox="0 0 721 226" fill="none" xmlns="http://www.w3.org/2000/svg">
<path d="M617.059 127.377V222.021H586.03V9.48694H616.644V88.5645H618.616C622.352 79.9856 628.06 73.171 635.739 68.1205C643.419 63.0701 653.45 60.5449 665.834 60.5449C676.765 60.5449 686.313 62.7934 694.477 67.2903C702.709 71.7873 709.074 78.4982 713.571 87.4229C718.138 96.2785 720.421 107.348 720.421 120.631V222.021H689.391V124.367C689.391 112.675 686.382 103.612 680.363 97.1779C674.344 90.6746 665.973 87.4229 655.249 87.4229C647.916 87.4229 641.343 88.9796 635.532 92.0929C629.789 95.2062 625.258 99.7723 621.937 105.791C618.685 111.741 617.059 118.936 617.059 127.377Z" fill="url(#paint0_linear_1030_15)"/>
<path d="M548.8 101.537L520.677 106.518C519.501 102.92 517.633 99.4956 515.073 96.244C512.582 92.9923 509.192 90.3287 504.903 88.2532C500.613 86.1777 495.252 85.1399 488.817 85.1399C480.031 85.1399 472.698 87.1116 466.817 91.0551C460.936 94.9295 457.996 99.9453 457.996 106.103C457.996 111.43 459.968 115.719 463.911 118.971C467.855 122.223 474.22 124.886 483.006 126.962L508.327 132.773C522.994 136.163 533.926 141.387 541.121 148.443C548.316 155.5 551.913 164.667 551.913 175.944C551.913 185.492 549.146 194.001 543.611 201.473C538.146 208.876 530.501 214.687 520.677 218.908C510.922 223.128 499.61 225.238 486.742 225.238C468.892 225.238 454.329 221.433 443.052 213.823C431.775 206.143 424.857 195.247 422.297 181.133L452.288 176.567C454.156 184.385 457.996 190.3 463.807 194.313C469.619 198.256 477.195 200.228 486.534 200.228C496.704 200.228 504.834 198.118 510.922 193.897C517.01 189.608 520.054 184.385 520.054 178.227C520.054 173.246 518.186 169.06 514.45 165.67C510.783 162.28 505.145 159.72 497.535 157.991L470.553 152.076C455.678 148.686 444.678 143.289 437.552 135.887C430.495 128.484 426.967 119.109 426.967 107.763C426.967 98.3541 429.596 90.1212 434.854 83.0644C440.112 76.0076 447.376 70.5074 456.647 66.5639C465.918 62.5513 476.537 60.5449 488.506 60.5449C505.733 60.5449 519.293 64.2809 529.186 71.7528C539.08 79.1555 545.618 89.0834 548.8 101.537Z" fill="url(#paint1_linear_1030_15)"/>
<path d="M356.581 222.021V62.6204H387.61V222.021H356.581ZM372.251 38.0254C366.855 38.0254 362.219 36.2266 358.345 32.629C354.54 28.9623 352.637 24.6037 352.637 19.5532C352.637 14.4336 354.54 10.075 358.345 6.47743C362.219 2.81067 366.855 0.977295 372.251 0.977295C377.647 0.977295 382.248 2.81067 386.053 6.47743C389.927 10.075 391.865 14.4336 391.865 19.5532C391.865 24.6037 389.927 28.9623 386.053 32.629C382.248 36.2266 377.647 38.0254 372.251 38.0254Z" fill="url(#paint2_linear_1030_15)"/>
<path d="M322.257 62.6205V87.5268H235.189V62.6205H322.257ZM258.539 24.4308H289.568V175.218C289.568 181.237 290.467 185.768 292.266 188.812C294.065 191.787 296.382 193.828 299.219 194.935C302.125 195.973 305.273 196.492 308.663 196.492C311.153 196.492 313.333 196.319 315.201 195.973C317.068 195.627 318.521 195.35 319.559 195.143L325.163 220.776C323.364 221.467 320.804 222.159 317.484 222.851C314.163 223.612 310.012 224.027 305.03 224.096C296.867 224.235 289.256 222.782 282.2 219.738C275.143 216.694 269.435 211.989 265.077 205.624C260.718 199.259 258.539 191.268 258.539 181.652V24.4308Z" fill="url(#paint3_linear_1030_15)"/>
<path d="M175.075 222.021V62.6204H206.104V222.021H175.075ZM190.746 38.0254C185.349 38.0254 180.714 36.2266 176.84 32.629C173.034 28.9623 171.132 24.6037 171.132 19.5532C171.132 14.4336 173.034 10.075 176.84 6.47743C180.714 2.81067 185.349 0.977295 190.746 0.977295C196.142 0.977295 200.743 2.81067 204.548 6.47743C208.422 10.075 210.359 14.4336 210.359 19.5532C210.359 24.6037 208.422 28.9623 204.548 32.629C200.743 36.2266 196.142 38.0254 190.746 38.0254Z" fill="url(#paint4_linear_1030_15)"/>
<path d="M31.4495 127.377V222.021H0.42041V62.6204H30.2042V88.5645H32.176C35.8427 80.124 41.585 73.344 49.4028 68.2244C57.2898 63.1047 67.2178 60.5449 79.1866 60.5449C90.0485 60.5449 99.5614 62.828 107.725 67.3942C115.889 71.8911 122.219 78.602 126.716 87.5267C131.213 96.4515 133.462 107.486 133.462 120.631V222.021H102.433V124.367C102.433 112.814 99.423 103.785 93.404 97.2817C87.385 90.7092 79.1174 87.423 68.6014 87.423C61.4063 87.423 55.0067 88.9796 49.4028 92.0929C43.8681 95.2062 39.4749 99.7723 36.2232 105.791C33.0408 111.741 31.4495 118.936 31.4495 127.377Z" fill="url(#paint5_linear_1030_15)"/>
<defs>
<linearGradient id="paint0_linear_1030_15" x1="360.379" y1="-61.0809" x2="360.379" y2="293.253" gradientUnits="userSpaceOnUse">
<stop stop-color="#0A0A0A"/>
<stop offset="1" stop-color="#666666"/>
</linearGradient>
<linearGradient id="paint1_linear_1030_15" x1="360.379" y1="-61.081" x2="360.379" y2="293.253" gradientUnits="userSpaceOnUse">
<stop stop-color="#0A0A0A"/>
<stop offset="1" stop-color="#666666"/>
</linearGradient>
<linearGradient id="paint2_linear_1030_15" x1="360.379" y1="-61.081" x2="360.379" y2="293.253" gradientUnits="userSpaceOnUse">
<stop stop-color="#0A0A0A"/>
<stop offset="1" stop-color="#666666"/>
</linearGradient>
<linearGradient id="paint3_linear_1030_15" x1="360.379" y1="-61.081" x2="360.379" y2="293.253" gradientUnits="userSpaceOnUse">
<stop stop-color="#0A0A0A"/>
<stop offset="1" stop-color="#666666"/>
</linearGradient>
<linearGradient id="paint4_linear_1030_15" x1="360.379" y1="-61.081" x2="360.379" y2="293.253" gradientUnits="userSpaceOnUse">
<stop stop-color="#0A0A0A"/>
<stop offset="1" stop-color="#666666"/>
</linearGradient>
<linearGradient id="paint5_linear_1030_15" x1="360.379" y1="-61.081" x2="360.379" y2="293.253" gradientUnits="userSpaceOnUse">
<stop stop-color="#0A0A0A"/>
<stop offset="1" stop-color="#666666"/>
</linearGradient>
</defs>
</svg>
