<svg width="255" height="54" viewBox="0 0 255 54" fill="none" xmlns="http://www.w3.org/2000/svg">
<path d="M254.514 19.4698V23.0191H242.105V19.4698H254.514ZM245.433 14.0273H249.855V35.516C249.855 36.3737 249.983 37.0195 250.239 37.4533C250.495 37.8773 250.826 38.1682 251.231 38.3259C251.644 38.4738 252.093 38.5478 252.576 38.5478C252.931 38.5478 253.242 38.5231 253.508 38.4738C253.774 38.4245 253.981 38.385 254.129 38.3555L254.928 42.0084C254.672 42.107 254.307 42.2056 253.833 42.3042C253.36 42.4126 252.768 42.4718 252.058 42.4817C250.895 42.5014 249.81 42.2944 248.804 41.8605C247.799 41.4267 246.985 40.7562 246.365 39.8492C245.744 38.9422 245.433 37.8034 245.433 36.4329V14.0273Z" fill="white" fill-opacity="0.5"/>
<path d="M229.26 42.6437C227.022 42.6437 225.094 42.1656 223.478 41.2092C221.87 40.2429 220.628 38.8873 219.751 37.1422C218.883 35.3872 218.449 33.3315 218.449 30.9751C218.449 28.6483 218.883 26.5975 219.751 24.8228C220.628 23.0481 221.851 21.6629 223.419 20.6671C224.996 19.6713 226.84 19.1733 228.95 19.1733C230.232 19.1733 231.473 19.3853 232.677 19.8093C233.879 20.2332 234.959 20.8988 235.915 21.8058C236.872 22.7129 237.626 23.8911 238.178 25.3405C238.73 26.7799 239.006 28.5299 239.006 30.5906V32.1582H220.949V28.8454H234.673C234.673 27.6821 234.437 26.6517 233.963 25.7546C233.49 24.8474 232.825 24.1326 231.967 23.6101C231.118 23.0875 230.123 22.8263 228.979 22.8263C227.737 22.8263 226.653 23.1319 225.726 23.7432C224.808 24.3446 224.098 25.1333 223.596 26.1094C223.103 27.0757 222.857 28.1257 222.857 29.2595V31.8476C222.857 33.366 223.123 34.6576 223.655 35.7224C224.197 36.7873 224.952 37.6006 225.917 38.1627C226.884 38.7148 228.013 38.9908 229.305 38.9908C230.143 38.9908 230.907 38.8725 231.597 38.6359C232.287 38.3894 232.884 38.0246 233.387 37.5414C233.889 37.0584 234.273 36.4619 234.54 35.752L238.726 36.5063C238.39 37.7387 237.789 38.8183 236.921 39.7451C236.063 40.662 234.983 41.3768 233.683 41.8895C232.391 42.3923 230.917 42.6437 229.26 42.6437Z" fill="white" fill-opacity="0.5"/>
<path d="M213.52 11.8979V42.1862H209.098V11.8979H213.52Z" fill="white" fill-opacity="0.5"/>
<path d="M203.152 11.8979V42.1862H198.73V11.8979H203.152Z" fill="white" fill-opacity="0.5"/>
<path d="M181.622 42.6881C180.182 42.6881 178.88 42.4219 177.717 41.8895C176.553 41.3472 175.632 40.5634 174.951 39.5381C174.281 38.5127 173.945 37.2555 173.945 35.7668C173.945 34.4851 174.192 33.4301 174.685 32.6019C175.178 31.7737 175.843 31.1181 176.682 30.6349C177.52 30.1518 178.456 29.7871 179.491 29.5405C180.527 29.2941 181.582 29.1068 182.656 28.9786C184.017 28.8208 185.121 28.6927 185.969 28.594C186.817 28.4856 187.433 28.3131 187.818 28.0765C188.202 27.8398 188.395 27.4552 188.395 26.9229V26.8193C188.395 25.5277 188.03 24.527 187.3 23.8171C186.58 23.1072 185.505 22.7523 184.076 22.7523C182.587 22.7523 181.414 23.0826 180.556 23.7432C179.708 24.394 179.122 25.1186 178.797 25.9172L174.641 24.9707C175.133 23.5904 175.853 22.4762 176.8 21.6284C177.757 20.7705 178.856 20.1494 180.097 19.7649C181.34 19.3705 182.646 19.1733 184.017 19.1733C184.924 19.1733 185.886 19.2818 186.9 19.4987C187.926 19.7057 188.883 20.0902 189.77 20.6523C190.667 21.2142 191.402 22.0178 191.973 23.0629C192.545 24.0981 192.831 25.4439 192.831 27.1004V42.1853H188.512V39.0796H188.336C188.05 39.6514 187.62 40.2134 187.048 40.7655C186.477 41.3176 185.742 41.7761 184.846 42.1409C183.948 42.5057 182.873 42.6881 181.622 42.6881ZM182.583 39.1387C183.805 39.1387 184.85 38.8971 185.718 38.4141C186.596 37.9309 187.261 37.2999 187.715 36.5211C188.178 35.7323 188.409 34.8893 188.409 33.9921V31.0639C188.252 31.2216 187.946 31.3695 187.492 31.5075C187.048 31.6357 186.541 31.7491 185.969 31.8476C185.397 31.9364 184.84 32.0202 184.298 32.0991C183.755 32.168 183.303 32.2272 182.938 32.2765C182.08 32.385 181.296 32.5674 180.586 32.8237C179.886 33.0801 179.324 33.4499 178.9 33.9329C178.485 34.4062 178.279 35.0372 178.279 35.826C178.279 36.9203 178.683 37.7485 179.491 38.3105C180.3 38.8627 181.33 39.1387 182.583 39.1387Z" fill="white" fill-opacity="0.5"/>
<path d="M145.579 42.1854L138.895 19.4692H143.464L147.916 36.1514H148.137L152.604 19.4692H157.173L161.61 36.0775H161.832L166.255 19.4692H170.824L164.154 42.1854H159.643L155.029 25.7842H154.689L150.075 42.1854H145.579Z" fill="white" fill-opacity="0.5"/>
<path d="M126.037 42.6437C123.799 42.6437 121.872 42.1656 120.255 41.2092C118.648 40.2429 117.406 38.8873 116.528 37.1422C115.66 35.3872 115.227 33.3315 115.227 30.9751C115.227 28.6483 115.66 26.5975 116.528 24.8228C117.406 23.0481 118.628 21.6629 120.196 20.6671C121.773 19.6713 123.617 19.1733 125.727 19.1733C127.009 19.1733 128.251 19.3853 129.454 19.8093C130.657 20.2332 131.737 20.8988 132.693 21.8058C133.649 22.7129 134.404 23.8911 134.955 25.3405C135.507 26.7799 135.784 28.5299 135.784 30.5906V32.1582H117.726V28.8454H131.451C131.451 27.6821 131.214 26.6517 130.74 25.7546C130.267 24.8474 129.602 24.1326 128.744 23.6101C127.896 23.0875 126.901 22.8263 125.757 22.8263C124.514 22.8263 123.43 23.1319 122.503 23.7432C121.586 24.3446 120.877 25.1333 120.374 26.1094C119.881 27.0757 119.634 28.1257 119.634 29.2595V31.8476C119.634 33.366 119.9 34.6576 120.433 35.7224C120.974 36.7873 121.729 37.6006 122.695 38.1627C123.661 38.7148 124.79 38.9908 126.082 38.9908C126.92 38.9908 127.684 38.8725 128.374 38.6359C129.065 38.3894 129.661 38.0246 130.164 37.5414C130.667 37.0584 131.051 36.4619 131.317 35.752L135.503 36.5063C135.168 37.7387 134.566 38.8183 133.698 39.7451C132.84 40.662 131.761 41.3768 130.46 41.8895C129.168 42.3923 127.694 42.6437 126.037 42.6437Z" fill="white" fill-opacity="0.5"/>
<path d="M111.599 19.4698V23.0191H99.1914V19.4698H111.599ZM102.519 14.0273H106.94V35.516C106.94 36.3737 107.069 37.0195 107.325 37.4533C107.581 37.8773 107.911 38.1682 108.316 38.3259C108.73 38.4738 109.179 38.5478 109.661 38.5478C110.016 38.5478 110.327 38.5231 110.594 38.4738C110.86 38.4245 111.066 38.385 111.214 38.3555L112.013 42.0084C111.757 42.107 111.392 42.2056 110.919 42.3042C110.446 42.4126 109.854 42.4718 109.144 42.4817C107.98 42.5014 106.896 42.2944 105.89 41.8605C104.885 41.4267 104.071 40.7562 103.45 39.8492C102.829 38.9422 102.519 37.8034 102.519 36.4329V14.0273Z" fill="white" fill-opacity="0.5"/>
<path d="M90.6246 42.1855V19.4693H95.0464V42.1855H90.6246ZM92.858 15.9644C92.0887 15.9644 91.428 15.708 90.8757 15.1953C90.3333 14.6728 90.0625 14.0516 90.0625 13.3319C90.0625 12.6023 90.3333 11.9812 90.8757 11.4684C91.428 10.9459 92.0887 10.6846 92.858 10.6846C93.6263 10.6846 94.2826 10.9459 94.8241 11.4684C95.3764 11.9812 95.6525 12.6023 95.6525 13.3319C95.6525 14.0516 95.3764 14.6728 94.8241 15.1953C94.2826 15.708 93.6263 15.9644 92.858 15.9644Z" fill="white" fill-opacity="0.5"/>
<path d="M67.4727 42.1862V11.8979H72.0425V38.2522H85.7668V42.1862H67.4727Z" fill="white" fill-opacity="0.5"/>
<path d="M27 53C41.3594 53 53 41.3594 53 27C53 12.6406 41.3594 1 27 1C12.6406 1 1 12.6406 1 27C1 41.3594 12.6406 53 27 53Z" stroke="white" stroke-opacity="0.5" stroke-width="2"/>
<path d="M26.1619 10.6108H21.5391V15.2337H26.1619V10.6108Z" fill="white" fill-opacity="0.5"/>
<path d="M26.1619 17.7559H21.5391V22.3787H26.1619V17.7559Z" fill="white" fill-opacity="0.5"/>
<path d="M19.0135 24.8989H14.3906V29.5218H19.0135V24.8989Z" fill="white" fill-opacity="0.5"/>
<path d="M11.8728 24.8989H7.25V29.5218H11.8728V24.8989Z" fill="white" fill-opacity="0.5"/>
<path d="M32.8846 24.8989H28.2617V29.5218H32.8846V24.8989Z" fill="white" fill-opacity="0.5"/>
<path d="M26.1619 31.6245H21.5391V36.2474H26.1619V31.6245Z" fill="white" fill-opacity="0.5"/>
<path d="M26.1619 38.7681H21.5391V43.3909H26.1619V38.7681Z" fill="white" fill-opacity="0.5"/>
<path d="M32.8846 38.7681H28.2617V43.3909H32.8846V38.7681Z" fill="white" fill-opacity="0.5"/>
<path d="M40.033 38.7681H35.4102V43.3909H40.033V38.7681Z" fill="white" fill-opacity="0.5"/>
<path d="M40.033 10.6108H35.4102V15.2337H40.033V10.6108Z" fill="white" fill-opacity="0.5"/>
<path d="M40.033 17.7559H35.4102V22.3787H40.033V17.7559Z" fill="white" fill-opacity="0.5"/>
<path d="M40.033 24.8989H35.4102V29.5218H40.033V24.8989Z" fill="white" fill-opacity="0.5"/>
<path d="M26.1619 24.8989H21.5391V29.5218H26.1619V24.8989Z" fill="white" fill-opacity="0.5"/>
</svg>
