<svg width="272" height="60" viewBox="0 0 272 60" fill="none" xmlns="http://www.w3.org/2000/svg">
<path d="M98.6735 40.867V40.7583C98.6735 35.7407 94.9987 31.5941 89.7813 31.5941C84.4551 31.5941 81.0527 35.6951 81.0527 40.6493V40.7583C81.0527 45.7214 84.7275 49.8679 89.8904 49.8679C95.2709 49.8679 98.6735 45.767 98.6735 40.867ZM74.4108 40.867V40.7583C74.4108 32.6193 80.9982 25.8776 89.8902 25.8776C98.7822 25.8776 105.315 32.5104 105.315 40.6493V40.7583C105.315 48.8426 98.728 55.5843 89.7813 55.5843C80.9438 55.5843 74.4108 48.9517 74.4108 40.867ZM132.209 40.7674V40.6585C132.209 35.1598 128.426 31.5486 123.925 31.5486C119.425 31.5486 115.469 35.2143 115.469 40.6585V40.7674C115.469 46.2114 119.425 49.877 123.925 49.877C128.48 49.877 132.209 46.3748 132.209 40.7674ZM108.99 18.5463C108.99 16.7135 110.415 15.3069 112.284 15.3069C114.153 15.3069 115.632 16.7044 115.632 18.5463V31.222C117.773 28.2549 120.795 25.8867 125.513 25.8867C132.318 25.8867 138.96 31.1675 138.96 40.6585V40.7674C138.96 50.2038 132.372 55.5389 125.513 55.5389C120.686 55.5389 117.664 53.1707 115.632 50.5213V51.9822C115.632 53.7606 114.153 55.2214 112.284 55.2214C110.469 55.2214 108.99 53.7697 108.99 51.982V18.5463ZM143.134 29.4436C143.134 27.6106 144.558 26.1589 146.427 26.1589C148.297 26.1589 149.776 27.6106 149.776 29.4436V51.9822C149.776 53.815 148.296 55.2214 146.427 55.2214C144.613 55.2214 143.134 53.8241 143.134 51.982V29.4436ZM142.635 18.8184C142.635 16.8767 144.277 15.6337 146.418 15.6337C148.56 15.6337 150.202 16.8767 150.202 18.8184V19.145C150.202 21.0868 148.56 22.3845 146.418 22.3845C144.277 22.3845 142.635 21.0868 142.635 19.145V18.8184ZM156.136 20.2157C156.136 18.3829 157.615 16.922 159.539 16.922C161.408 16.922 162.887 18.3829 162.887 20.2157V36.176L181.106 18.1652C181.878 17.3576 182.694 16.9222 183.901 16.9222C185.77 16.9222 187.031 18.3829 187.031 19.9981C187.031 21.0234 186.596 21.7764 185.824 22.4752L173.857 33.7989L186.814 49.5958C187.367 50.2946 187.748 50.9477 187.748 51.9731C187.748 53.8059 186.269 55.2125 184.346 55.2125C183.03 55.2125 182.204 54.568 181.488 53.6516L169.138 38.1722L162.878 44.1064V51.9277C162.878 53.7606 161.399 55.2123 159.529 55.2123C157.606 55.2123 156.127 53.7606 156.127 51.9277V20.2249L156.136 20.2157ZM195.66 52.5176L187.866 30.8409C187.703 30.4143 187.539 29.7067 187.539 29.1713C187.539 27.6106 188.801 26.1499 190.779 26.1499C192.421 26.1499 193.519 27.2297 194.018 28.7358L199.616 45.9937L205.269 28.7358C205.759 27.2296 206.966 26.1499 208.672 26.1499H209.053C210.758 26.1499 211.965 27.2297 212.455 28.7358L218.162 45.9937L223.815 28.6813C224.251 27.2751 225.294 26.1498 227.055 26.1498C228.869 26.1498 230.185 27.5563 230.185 29.1713C230.185 29.6522 230.022 30.3056 229.913 30.6231L222.01 52.5177C221.293 54.5138 219.923 55.4304 218.335 55.4304H218.117C216.475 55.4304 215.096 54.5138 214.497 52.6265L208.844 35.6953L203.137 52.6265C202.529 54.5138 201.159 55.4304 199.571 55.4304H199.353C197.711 55.4304 196.332 54.5138 195.678 52.5177L195.66 52.5176ZM233.751 29.4436C233.751 27.6106 235.175 26.1589 237.045 26.1589C238.914 26.1589 240.393 27.6106 240.393 29.4436V51.9822C240.393 53.815 238.914 55.2214 237.045 55.2214C235.23 55.2214 233.751 53.8241 233.751 51.982V29.4436ZM233.252 18.8184C233.252 16.8767 234.894 15.6337 237.035 15.6337C239.177 15.6337 240.819 16.8767 240.819 18.8184V19.145C240.819 21.0868 239.177 22.3845 237.035 22.3845C234.894 22.3845 233.252 21.0868 233.252 19.145L233.252 18.8184ZM245.991 18.5463C245.991 16.7679 247.416 15.3069 249.285 15.3069C251.154 15.3069 252.633 16.7587 252.633 18.5463V39.5788L265.091 27.5563C265.971 26.6942 266.797 26.1589 267.949 26.1589C269.709 26.1589 270.861 27.5563 270.861 29.126C270.861 30.2058 270.308 31.0132 269.383 31.8752L261.697 38.8345L270.48 50.104C271.088 50.9115 271.361 51.5102 271.361 52.2634C271.361 54.0418 269.936 55.2305 268.23 55.2305C266.915 55.2305 266.143 54.8039 265.318 53.7788L257.033 42.9359L252.642 47.0371V52.0002C252.642 53.8332 251.163 55.2397 249.294 55.2397C247.479 55.2397 246 53.8422 246 52.0002V18.5643L245.991 18.5463ZM75.1823 26.8756C73.5127 26.8756 72.1516 25.5417 72.1516 23.8994C72.1516 22.2571 73.5127 20.9143 75.1823 20.9143C76.8606 20.9143 78.2217 22.2571 78.2217 23.8994C78.2217 25.5417 76.8608 26.8756 75.1823 26.8756ZM80.7806 22.2934C80.1999 16.9763 74.7283 19.1086 74.7283 19.1086C70.845 20.5877 69.9557 19.9614 69.9557 19.9614L70.6816 9.60858C70.2734 4.77241 63.8039 6.45114 63.8039 6.45114C67.3063 8.03897 66.5896 9.89893 66.5896 9.89893C66.5896 9.89893 62.7785 48.0078 62.343 50.4485C61.9075 52.8893 58.5324 51.8913 58.5324 51.8913V56.065H62.9237C66.1449 56.065 66.4353 51.7461 66.4353 51.7461L68.5856 31.5122C71.9791 30.9495 74.6376 30.1782 74.6376 30.1782C81.842 27.7738 80.7806 22.3027 80.7806 22.3027V22.2934ZM76.8789 23.8994C76.8789 24.816 76.1167 25.5599 75.1823 25.5599C74.2566 25.5599 73.4944 24.8067 73.4944 23.8994C73.4944 22.9921 74.2566 22.23 75.1821 22.23C76.1167 22.23 76.8789 22.9739 76.8789 23.8994ZM35.44 32.7282L46.0654 12.6032C46.0836 12.5759 46.1017 12.5487 46.1199 12.5305C46.619 11.2784 47.7804 10.3709 49.1686 10.1895C47.7984 10.2259 46.4738 10.9518 45.7931 12.2402L35.44 31.8752V32.7371V32.7282ZM4.1909 55.5029C2.31272 54.5318 1.57773 52.2179 2.57593 50.3853L28.1812 2.63139C28.7259 1.60605 29.7057 0.943551 30.7855 0.716772C30.8489 0.698744 30.9033 0.689635 30.9578 0.671416C31.103 0.653198 31.2753 0.626061 31.4387 0.626061C31.5023 0.626061 31.5747 0.607842 31.6292 0.607842C31.6751 0.608801 31.7207 0.614912 31.7653 0.626061C31.8833 0.626061 31.9922 0.644279 32.1101 0.662307C32.2644 0.680525 32.4187 0.707853 32.5819 0.753019C32.6454 0.762128 32.709 0.789455 32.7724 0.816593C32.9629 0.871057 33.1444 0.94374 33.326 1.03445C33.3442 1.04337 33.3715 1.04337 33.3715 1.06159C33.3957 1.06721 33.4178 1.07982 33.4349 1.09784C33.6437 1.19766 33.8069 1.3157 33.9701 1.45176C34.0065 1.4789 34.0427 1.49731 34.0701 1.52426L34.2788 1.73301C34.2152 1.64229 34.1608 1.53336 34.0881 1.45176C34.0596 1.43122 34.0376 1.40289 34.0247 1.37016C33.8795 1.20696 33.7344 1.06159 33.5528 0.916603C33.5256 0.898195 33.4894 0.861948 33.4529 0.834811C33.2806 0.716772 33.1083 0.589814 32.9178 0.489993C32.8994 0.480884 32.8722 0.453747 32.8542 0.435529C32.8269 0.42642 32.7997 0.42642 32.7726 0.417311C32.6001 0.335708 32.4278 0.254106 32.2279 0.199641C32.1555 0.172314 32.0919 0.154096 32.0103 0.126958C31.8651 0.0909012 31.7019 0.072683 31.5476 0.0453557C31.4305 0.0273 31.3122 0.0182277 31.1937 0.0182182C31.1392 0.0182182 31.103 0 31.0487 0C30.9942 0 30.9307 0.0182182 30.8491 0.0182182C30.6853 0.0288352 30.5219 0.0439595 30.3591 0.0635739C30.2957 0.0816023 30.2412 0.0907114 30.1776 0.10893C29.0798 0.335708 28.0816 1.00712 27.5191 2.05979L1.39631 50.7933C0.380073 52.6716 1.11506 55.0307 3.0386 56.0196C4.36322 56.7093 5.90588 56.555 7.07621 55.7837C6.14177 56.0561 5.08929 55.9925 4.16376 55.5207L4.1909 55.5029ZM31.6383 51.6556C29.5514 51.6556 27.8275 49.9678 27.8275 47.9171V19.5445L27.1923 20.7241V48.2712C27.1923 50.3672 28.9435 52.0913 31.0758 52.0913C32.1283 52.0913 33.081 51.6738 33.7886 50.9933C33.1626 51.4108 32.4278 51.6556 31.6292 51.6556H31.6383ZM49.6584 49.6412C47.5624 49.6412 45.8474 47.9535 45.8474 45.9028V29.2802L45.2395 30.4688V46.4837C45.2395 48.6249 47.0179 50.3944 49.2046 50.3944C50.9194 50.3944 52.3894 49.2872 52.9337 47.7721C52.2805 48.888 51.0557 49.6503 49.6582 49.6503L49.6584 49.6412ZM60.7371 2.42264C60.7371 2.42264 48.5513 4.446 35.44 6.5965V32.7282L46.0654 12.6032C46.0836 12.5759 46.1017 12.5487 46.1199 12.5305C46.6824 11.1423 48.0525 10.1532 49.6495 10.1532C51.7453 10.1532 53.4603 11.8409 53.4603 13.8916V45.8939C53.4603 47.9535 51.7453 49.6321 49.6495 49.6321C47.5534 49.6321 45.8385 47.9444 45.8385 45.8939V29.2711L35.7217 48.4889C35.5776 48.7493 35.4007 48.9902 35.1952 49.2056C34.651 50.6303 33.2624 51.6556 31.6292 51.6556C29.5423 51.6556 27.8186 49.9678 27.8186 47.9171V19.5445L9.38992 53.9057C8.40993 55.7386 6.05087 56.4644 4.1816 55.4936C2.30342 54.5227 1.56843 52.209 2.56664 50.3762L25.1416 8.26594C14.335 10.0354 4.96214 11.5596 3.74626 11.7139C0.72489 12.095 0.0443647 14.6808 0.0443647 14.6808C0.0443647 14.6808 -0.0554559 55.4118 0.0443647 57.4351C0.135076 59.4494 2.2945 59.8306 2.2945 59.8306C2.2945 59.8306 53.2242 60.2117 55.8554 59.8306C58.4959 59.4494 58.9768 56.4825 58.9768 56.4825L64.1487 4.99938C63.9582 1.64229 60.7371 2.40423 60.7371 2.40423V2.42264Z" fill="white" fill-opacity="0.5"/>
</svg>
