<svg width="88" height="80" viewBox="0 0 88 80" fill="none" xmlns="http://www.w3.org/2000/svg">
<path d="M12.5628 7.16896H0V53.2851H6.44996V35.5083H12.5628C20.3837 35.5982 26.8112 29.3505 26.9235 21.5072C27.0359 13.6639 20.7657 7.25885 12.9224 7.14648C12.81 7.16896 12.6752 7.16896 12.5628 7.16896ZM12.5628 29.0809H6.44996V13.6189H12.5628C16.8328 13.6863 20.2264 17.2147 20.1589 21.4847C20.0915 25.6424 16.7205 29.0134 12.5628 29.0809Z" fill="white" fill-opacity="0.5"/>
<path d="M79.5585 53.2851H87.5591L75.9627 34.8791C83.4464 32.5643 87.6265 24.631 85.3118 17.1473C83.4689 11.2142 77.9853 7.14648 71.7601 7.14648H59.1973V53.2626H65.6472V35.4859H68.3216M65.6697 13.6189H71.7826C76.0526 13.5515 79.5585 16.945 79.6484 21.215C79.7158 25.4851 76.3223 28.991 72.0522 29.0809C71.9624 29.0809 71.8725 29.0809 71.7826 29.0809H65.6697V13.6189Z" fill="white" fill-opacity="0.5"/>
<path d="M48.6783 5.77575L41.1721 34.0477L33.6659 5.77575L25.373 0L41.1721 59.4206L56.9936 0" fill="white" fill-opacity="0.5"/>
<path d="M83.1924 71.6267L82.0685 72.2928C81.8583 71.928 81.6581 71.6902 81.4678 71.5792C81.2696 71.4523 81.0139 71.3889 80.7007 71.3889C80.3161 71.3889 79.997 71.4979 79.7433 71.7159C79.4895 71.93 79.3627 72.1996 79.3627 72.5247C79.3627 72.9727 79.6957 73.3334 80.3617 73.607L81.2775 73.9816C82.0229 74.2829 82.568 74.6516 82.9129 75.0877C83.2578 75.5199 83.4303 76.0511 83.4303 76.6815C83.4303 77.5259 83.1488 78.2237 82.5858 78.7747C82.0189 79.3298 81.3152 79.6073 80.4747 79.6073C79.6779 79.6073 79.0197 79.3714 78.5004 78.8996C77.989 78.4278 77.6698 77.7638 77.543 76.9074L78.9464 76.5982C79.0098 77.1374 79.1208 77.5101 79.2794 77.7162C79.5649 78.1127 79.9811 78.3109 80.5282 78.3109C80.9604 78.3109 81.3192 78.1662 81.6046 77.8768C81.8901 77.5874 82.0328 77.2206 82.0328 76.7766C82.0328 76.5982 82.007 76.4357 81.9555 76.289C81.9079 76.1383 81.8306 76.0016 81.7235 75.8787C81.6205 75.7518 81.4857 75.6348 81.3192 75.5278C81.1527 75.4168 80.9544 75.3117 80.7245 75.2126L79.8384 74.8439C78.5817 74.3127 77.9533 73.5356 77.9533 72.5128C77.9533 71.823 78.2169 71.2461 78.7442 70.7823C79.2715 70.3145 79.9276 70.0806 80.7126 70.0806C81.7711 70.0806 82.5977 70.596 83.1924 71.6267Z" fill="white" fill-opacity="0.5"/>
<path d="M70.4697 77.2107H66.5389L65.5161 79.4408H64.0234L68.5668 69.6821L72.9495 79.4408H71.4331L70.4697 77.2107ZM69.9048 75.9084L68.543 72.7863L67.1158 75.9084H69.9048Z" fill="white" fill-opacity="0.5"/>
<path d="M49.1426 79.441L51.0753 69.5693L54.2271 76.7054L57.4918 69.5693L59.2283 79.441H57.807L56.9209 73.8986L54.2033 79.8632L51.5629 73.8926L50.5757 79.441H49.1426Z" fill="white" fill-opacity="0.5"/>
<path d="M43.7483 71.5611H40.0672V73.7674H43.6412V75.0697H40.0672V78.1382H43.7483V79.4406H38.6816V70.2588H43.7483V71.5611Z" fill="white" fill-opacity="0.5"/>
<path d="M24.4941 79.441V69.6348L31.1902 76.6401V70.2592H32.5758V80L25.8797 73.0125V79.441H24.4941Z" fill="white" fill-opacity="0.5"/>
<path d="M18.3915 70.2588V79.4406H17.0059V70.2588H18.3915Z" fill="white" fill-opacity="0.5"/>
<path d="M11.3545 70.7526V72.3939C10.5537 71.7239 9.72507 71.3889 8.86874 71.3889C7.92519 71.3889 7.1303 71.7278 6.48409 72.4058C5.83391 73.0797 5.50882 73.9043 5.50882 74.8796C5.50882 75.843 5.83391 76.6557 6.48409 77.3178C7.13427 77.9798 7.93113 78.3109 8.87468 78.3109C9.36232 78.3109 9.77661 78.2316 10.1176 78.073C10.3079 77.9937 10.5041 77.8867 10.7063 77.7519C10.9124 77.6171 11.1285 77.4546 11.3545 77.2643V78.9353C10.5616 79.3833 9.72904 79.6073 8.85684 79.6073C7.54459 79.6073 6.42462 79.1494 5.49692 78.2336C4.57319 77.3098 4.11133 76.1958 4.11133 74.8915C4.11133 73.722 4.49787 72.6793 5.27095 71.7635C6.22243 70.6415 7.45341 70.0806 8.96389 70.0806C9.7885 70.0806 10.5854 70.3046 11.3545 70.7526Z" fill="white" fill-opacity="0.5"/>
</svg>
