<svg width="64" height="80" viewBox="0 0 64 80" fill="none" xmlns="http://www.w3.org/2000/svg">
<path fill-rule="evenodd" clip-rule="evenodd" d="M10.7084 45.1431L12.1443 56.7733H27.4359C28.4777 57.5342 29.7451 58.2377 31.7727 58.2943C33.8292 58.2377 35.1242 57.5342 36.0818 56.7733H51.4853L52.9221 45.1431L62.6375 37.9902C64.5812 27.9359 61.9055 19.4313 56.9214 12.6725C51.5985 5.5476 42.5589 0.112343 31.7727 0C20.9868 0 11.9753 5.32246 6.37113 12.4473C1.86538 18.7555 -1.20443 25.4015 0.457526 37.6522C1.77182 38.609 3.00371 39.5187 4.22939 40.4238C6.28645 41.9429 8.32603 43.4491 10.7084 45.1431ZM30.7821 21.1429C31.0489 27.8311 31.3199 34.6236 31.7729 40.6367C32.1879 35.1528 32.3994 29.0064 32.6106 22.8676C32.8148 16.9324 33.0188 11.0042 33.4063 5.68867C34.5895 5.49162 36.082 5.54779 37.6022 5.82954C38.9267 6.22363 39.9124 6.58964 40.9257 7.3221C40.1179 11.4744 39.2274 16.0725 38.321 20.7526C36.9838 27.6575 35.6119 34.7407 34.4205 40.8337C35.0152 38.7933 35.6424 36.6371 36.2895 34.4127C38.7682 25.8919 41.5378 16.3711 43.8827 8.5329C45.1782 8.84274 46.5018 9.60283 47.5717 10.4195C48.4727 11.1516 49.1209 11.8555 50.0219 13.2357C48.0453 17.3496 45.9212 22.0349 43.7813 26.7552C41.4389 31.922 39.0776 37.1308 36.8697 41.6781C39.0708 38.0577 41.5068 33.8711 43.9659 29.6446C46.8242 24.7321 49.7139 19.7658 52.3022 15.5726C53.2031 16.4174 53.7666 17.0085 54.7523 18.5858C55.5976 19.8528 55.9355 21.3177 56.2168 22.7536C54.4811 24.8679 52.6485 27.1154 50.7825 29.4038C46.9571 34.0953 42.9914 38.9587 39.4331 43.1987C41.7951 40.898 44.4125 38.3099 47.0656 35.6864C50.5173 32.2734 54.0295 28.8006 57.1182 25.823C57.5689 26.8087 57.9068 27.7382 58.0758 29.5967C58.2158 31.3144 57.9626 33.3143 57.5689 34.6094L47.0359 42.4386L45.8536 51.225H34.1954C33.8574 51.9008 33.0965 52.7175 31.7733 52.8018C30.5306 52.7259 30.1787 52.3075 29.5044 51.5054C29.4297 51.4166 29.3512 51.3232 29.267 51.225L17.5798 51.1407L16.4532 42.3824L5.83637 34.497C5.47036 33.2577 5.13244 31.2021 5.32949 29.4844C5.49845 27.7105 5.83637 26.8091 6.37133 25.7392C8.76805 28.074 11.4224 30.7045 14.1119 33.3699C17.5211 36.7486 20.9869 40.1834 24.0564 43.143C20.0484 38.2996 15.4697 32.7056 11.2014 27.4908C9.86136 25.8536 8.55195 24.2539 7.30039 22.7264C7.46935 21.2901 7.86344 19.7975 8.65207 18.5301C9.54983 17.0071 10.2376 16.4032 11.1206 15.6279C11.1518 15.6005 11.1833 15.5729 11.215 15.545C13.7641 19.7135 16.5927 24.6084 19.399 29.4648C21.8632 33.7291 24.3101 37.9637 26.5355 41.6504C24.29 36.9139 21.8095 31.4468 19.3555 26.0378C17.3156 21.5417 15.2939 17.0857 13.4405 13.1229C14.37 11.7151 14.9615 11.1235 15.9753 10.3348C16.9325 9.54622 18.256 8.78612 19.6077 8.50437C21.0788 13.6832 22.8191 19.5538 24.5513 25.3974C26.1348 30.7391 27.7116 36.0582 29.0699 40.8056C28.0578 35.8409 26.9593 30.1921 25.8551 24.5141C24.6857 18.5005 23.5099 12.4541 22.4234 7.15269C23.5781 6.50494 24.5637 6.13893 25.9154 5.71631C27.2671 5.49118 28.9005 5.40647 30.0552 5.68822C30.3562 10.4672 30.5678 15.7714 30.7821 21.1429Z" fill="white" fill-opacity="0.5"/>
<path d="M53.2506 64.9458V79.6279H50.0488V64.9458H53.2506Z" fill="white" fill-opacity="0.5"/>
<path d="M47.8619 64.9458V79.6279H44.6602V64.9458H47.8619Z" fill="white" fill-opacity="0.5"/>
<path d="M39.8388 73.7723C39.7327 73.3242 39.5145 72.9645 39.1843 72.6933C38.8541 72.4221 38.4532 72.2864 37.9815 72.2864C37.4862 72.2864 37.0793 72.4162 36.7609 72.6756C36.4543 72.9351 36.2597 73.3006 36.1772 73.7723H39.8388ZM36.0887 75.6297C36.0887 77.0095 36.7373 77.6994 38.0345 77.6994C38.7303 77.6994 39.2551 77.4163 39.6089 76.8503H42.7045C42.0795 78.9258 40.5169 79.9636 38.0168 79.9636C37.2503 79.9636 36.5486 79.8516 35.9118 79.6275C35.275 79.3917 34.7266 79.0615 34.2667 78.6369C33.8186 78.2124 33.4707 77.7053 33.223 77.1156C32.9754 76.526 32.8516 75.8656 32.8516 75.1344C32.8516 74.3797 32.9695 73.7016 33.2054 73.1002C33.4412 72.4869 33.7773 71.968 34.2136 71.5435C34.65 71.119 35.1748 70.7946 35.788 70.5706C36.413 70.3347 37.1147 70.2168 37.893 70.2168C38.6596 70.2168 39.3494 70.3347 39.9627 70.5706C40.5759 70.7946 41.0948 71.1248 41.5193 71.5612C41.9439 71.9975 42.2682 72.5341 42.4922 73.1709C42.7163 73.7959 42.8283 74.5035 42.8283 75.2936V75.6297H36.0887Z" fill="white" fill-opacity="0.5"/>
<path d="M21.459 64.9458H24.6608V71.7031C25.0971 71.1724 25.5393 70.8187 25.9875 70.6418C26.4356 70.4531 26.9604 70.3587 27.5618 70.3587C28.7057 70.3587 29.5666 70.6771 30.1444 71.314C30.7341 71.939 31.0289 72.7881 31.0289 73.8612V79.6279H27.8271V75.0464C27.8271 74.5865 27.7918 74.215 27.721 73.932C27.6502 73.6489 27.5323 73.4308 27.3672 73.2775C27.0842 73.0298 26.7422 72.906 26.3412 72.906C25.7988 72.906 25.3801 73.0711 25.0853 73.4013C24.8023 73.7197 24.6608 74.1796 24.6608 74.7811V79.6279H21.459V64.9458Z" fill="white" fill-opacity="0.5"/>
<path d="M17.6475 69.7045C17.2701 69.3978 16.8927 69.1738 16.5154 69.0323C16.138 68.879 15.7724 68.8023 15.4186 68.8023C14.9705 68.8023 14.6049 68.9084 14.3219 69.1207C14.0388 69.333 13.8973 69.6101 13.8973 69.9521C13.8973 70.188 13.9681 70.3826 14.1096 70.5359C14.2511 70.6892 14.4339 70.8248 14.658 70.9427C14.8938 71.0488 15.1533 71.1432 15.4363 71.2257C15.7311 71.3083 16.0201 71.3967 16.3031 71.4911C17.4352 71.8685 18.2607 72.3755 18.7796 73.0124C19.3103 73.6374 19.5756 74.457 19.5756 75.4712C19.5756 76.1552 19.4577 76.7743 19.2218 77.3286C18.9978 77.8828 18.6617 78.3604 18.2135 78.7614C17.7772 79.1506 17.2347 79.4513 16.5861 79.6635C15.9493 79.8876 15.224 79.9996 14.4103 79.9996C12.7239 79.9996 11.1614 79.4984 9.72266 78.4961L11.2086 75.7011C11.7274 76.1611 12.2404 76.5031 12.7475 76.7271C13.2546 76.9512 13.7558 77.0632 14.2511 77.0632C14.8172 77.0632 15.2358 76.9335 15.5071 76.6741C15.7901 76.4146 15.9316 76.1198 15.9316 75.7896C15.9316 75.5891 15.8962 75.4181 15.8255 75.2766C15.7547 75.1233 15.6368 74.9877 15.4717 74.8697C15.3066 74.74 15.0884 74.6221 14.8172 74.516C14.5577 74.4098 14.2393 74.2919 13.862 74.1622C13.4138 74.0207 12.9716 73.8673 12.5353 73.7022C12.1107 73.5254 11.7274 73.2954 11.3855 73.0124C11.0553 72.7293 10.784 72.3755 10.5717 71.951C10.3713 71.5147 10.271 70.9663 10.271 70.3059C10.271 69.6455 10.3772 69.05 10.5894 68.5193C10.8135 67.9768 11.1201 67.5169 11.5093 67.1395C11.9102 66.7503 12.3937 66.4496 12.9598 66.2374C13.5377 66.0251 14.1804 65.9189 14.8879 65.9189C15.5483 65.9189 16.2382 66.0133 16.9576 66.202C17.677 66.3789 18.3668 66.6442 19.0272 66.998L17.6475 69.7045Z" fill="white" fill-opacity="0.5"/>
</svg>
