<svg width="133" height="80" viewBox="0 0 133 80" fill="none" xmlns="http://www.w3.org/2000/svg">
<path d="M24.8913 29.478V48.6439L12.4435 41.4575V22.2916L29.0423 12.708L41.4915 19.8957L24.8913 29.478ZM41.4822 58.2275V39.0616L29.0331 31.8739V51.0398L12.4355 60.6234L24.8847 67.8111L41.4822 58.2275Z" fill="white" fill-opacity="0.5"/>
<path d="M49.7398 30.0405C50.4071 30.5752 51.1553 31.0183 51.9831 31.3685C52.8096 31.7187 53.6321 31.8952 54.452 31.8952C55.5212 31.8952 56.0559 31.5781 56.0559 30.9427C56.0559 30.6256 55.8967 30.3961 55.5796 30.2541C55.2625 30.1122 54.8606 29.9954 54.3763 29.9039C53.8921 29.8124 53.3734 29.7115 52.8228 29.6028C52.271 29.494 51.7536 29.3189 51.2694 29.0761C50.7851 28.8346 50.3832 28.4963 50.0661 28.0612C49.749 27.6274 49.5898 27.0251 49.5898 26.257C49.5898 24.9874 50.0449 23.9513 50.955 23.15C51.865 22.3487 53.1558 21.9468 54.8261 21.9468C55.6114 21.9468 56.3676 22.0476 57.0933 22.2479C57.8203 22.4482 58.4756 22.691 59.0607 22.9749V26.7094C58.4425 26.1416 57.7579 25.7064 57.0057 25.4066C56.2535 25.1055 55.4854 24.9556 54.7 24.9556C54.0991 24.9556 53.6812 25.0471 53.4477 25.2315C53.2129 25.4159 53.0975 25.6321 53.0975 25.8829C53.0975 26.1668 53.2606 26.3764 53.5857 26.509C53.912 26.643 54.3166 26.7558 54.8009 26.8473C55.2851 26.9389 55.8118 27.0477 56.3796 27.1737C56.9474 27.2984 57.474 27.4908 57.9583 27.7494C58.4425 28.0081 58.8484 28.3677 59.1734 28.8267C59.4998 29.287 59.6616 29.8999 59.6616 30.668C59.6616 31.3698 59.5277 31.988 59.261 32.5227C58.993 33.0573 58.6255 33.5044 58.1586 33.8639C57.6903 34.2234 57.1397 34.4994 56.5043 34.6904C55.8688 34.8828 55.1922 34.9783 54.4745 34.9783C53.4716 34.9783 52.5827 34.8735 51.8053 34.6652C51.0279 34.4569 50.3394 34.185 49.7384 33.8506V30.0405H49.7398ZM59.8925 25.2793V24.803L65.6806 18.7642H65.7814V22.2731H68.9136V25.2806H65.7814V29.8163C65.7814 30.485 65.9234 30.9612 66.2073 31.2451C66.4912 31.529 66.925 31.671 67.51 31.671C67.7607 31.671 68.0115 31.6299 68.2622 31.5463C68.5129 31.4627 68.7292 31.3539 68.9136 31.2199V34.4277C68.6297 34.5776 68.2662 34.7037 67.8231 34.8032C67.38 34.904 66.8666 34.9531 66.2815 34.9531C64.9615 34.9531 63.9427 34.5896 63.225 33.8626C62.5059 33.1356 62.1478 32.0796 62.1478 30.6919V25.2793H59.8925ZM78.005 34.6506L77.9546 33.0971C77.5871 33.7326 77.0777 34.2035 76.4263 34.5126C75.7749 34.8217 75.0731 34.9756 74.3209 34.9756C73.7359 34.9756 73.2052 34.8881 72.7303 34.713C72.2541 34.5378 71.8494 34.2911 71.5151 33.974C71.1808 33.6569 70.9181 33.2762 70.7258 32.8344C70.5334 32.3927 70.4379 31.8952 70.4379 31.3433C70.4379 29.0376 71.9741 27.6592 75.0493 27.2082L77.8564 26.8075V26.6576C77.8564 26.1402 77.6521 25.7396 77.2422 25.4544C76.8323 25.1705 76.2021 25.0285 75.3504 25.0285C74.5491 25.0285 73.7969 25.1745 73.0951 25.4676C72.3933 25.7595 71.7579 26.1654 71.1901 26.6828V23.1991C71.7247 22.8316 72.3761 22.5305 73.1442 22.297C73.9123 22.0635 74.7733 21.9468 75.7259 21.9468C77.5301 21.9468 78.9244 22.3646 79.9114 23.1991C80.8971 24.0349 81.3893 25.262 81.3893 26.8832V34.6519H78.005V34.6506ZM73.8951 31.0422C73.911 31.3924 74.049 31.6723 74.309 31.8819C74.5677 32.0915 74.906 32.195 75.3239 32.195C76.092 32.195 76.7062 31.9536 77.1652 31.468C77.6243 30.9838 77.8538 30.3908 77.8538 29.689V29.2631L75.6741 29.6134C74.4881 29.7978 73.8951 30.274 73.8951 31.0422ZM86.8205 34.6506H83.1616V22.2718H86.8205V23.8505C87.2052 23.2495 87.7014 22.7812 88.3116 22.4469C88.9219 22.1126 89.6436 21.9454 90.4794 21.9454C91.8988 21.9454 93.0145 22.3965 93.8251 23.2986C94.6357 24.2007 95.0403 25.4371 95.0403 27.0079V34.6506H91.3815V27.8596C91.3815 27.041 91.1891 26.4109 90.8057 25.9678C90.421 25.5247 89.8704 25.3031 89.1514 25.3031C88.4496 25.3031 87.8858 25.5499 87.4599 26.0421C87.0341 26.5356 86.8205 27.2161 86.8205 28.0838V34.6506ZM107.614 24.5019L101.65 31.6683H107.714V34.6506H96.8631V32.3449L102.777 25.2527H97.2147V22.2705H107.614V24.5019ZM116.871 34.6506L116.821 33.0971C116.454 33.7326 115.944 34.2035 115.293 34.5126C114.641 34.8217 113.94 34.9756 113.187 34.9756C112.602 34.9756 112.072 34.8881 111.597 34.713C111.12 34.5378 110.716 34.2911 110.382 33.974C110.047 33.6569 109.785 33.2762 109.592 32.8344C109.4 32.3927 109.304 31.8952 109.304 31.3433C109.304 29.0376 110.841 27.6592 113.916 27.2082L116.723 26.8075V26.6576C116.723 26.1402 116.519 25.7396 116.109 25.4544C115.699 25.1705 115.069 25.0285 114.217 25.0285C113.416 25.0285 112.663 25.1745 111.962 25.4676C111.26 25.7595 110.624 26.1654 110.056 26.6828V23.1991C110.591 22.8316 111.242 22.5305 112.011 22.297C112.779 22.0635 113.64 21.9468 114.592 21.9468C116.396 21.9468 117.791 22.3646 118.778 23.1991C119.763 24.0349 120.256 25.262 120.256 26.8832V34.6519H116.871V34.6506ZM112.761 31.0422C112.777 31.3924 112.915 31.6723 113.175 31.8819C113.434 32.0915 113.772 32.195 114.19 32.195C114.958 32.195 115.573 31.9536 116.032 31.468C116.491 30.9838 116.72 30.3908 116.72 29.689V29.2631L114.541 29.6134C113.354 29.7978 112.761 30.274 112.761 31.0422ZM53.4928 40.7505V58.2925H49.8339V40.7505H53.4928ZM60.6593 42.3292C60.6593 42.6131 60.6049 42.885 60.4961 43.1437C60.3873 43.4024 60.2374 43.6279 60.045 43.8203C59.8527 44.0127 59.6272 44.1665 59.3685 44.2833C59.1098 44.4 58.8298 44.4584 58.5287 44.4584C58.2276 44.4584 57.9476 44.4 57.6889 44.2833C57.4302 44.1665 57.2047 44.0113 57.0124 43.8203C56.82 43.6279 56.6701 43.4024 56.5613 43.1437C56.4525 42.885 56.3981 42.6131 56.3981 42.3292C56.3981 42.0453 56.4525 41.7733 56.5613 41.5146C56.6701 41.2559 56.82 41.0304 57.0124 40.838C57.2047 40.6457 57.4302 40.4918 57.6889 40.375C57.9476 40.2583 58.2276 40.1999 58.5287 40.1999C58.8298 40.1999 59.1084 40.2583 59.3685 40.375C59.6272 40.4918 59.8527 40.647 60.045 40.838C60.2374 41.0304 60.3873 41.2559 60.4961 41.5146C60.6049 41.7733 60.6593 42.0453 60.6593 42.3292ZM56.7006 58.2912V45.9124H60.3595V58.2912H56.7006ZM62.2128 45.9124H66.0719L68.9786 53.7302L71.8852 45.9124H75.6436L70.6064 58.2912H67.2487L62.2128 45.9124ZM81.4582 42.3292C81.4582 42.6131 81.4038 42.885 81.2951 43.1437C81.1863 43.4024 81.0364 43.6279 80.844 43.8203C80.6516 44.0127 80.4261 44.1665 80.1674 44.2833C79.9087 44.4 79.6288 44.4584 79.3277 44.4584C79.0265 44.4584 78.7466 44.4 78.4879 44.2833C78.2292 44.1665 78.0037 44.0113 77.8113 43.8203C77.619 43.6279 77.4691 43.4024 77.3603 43.1437C77.2515 42.885 77.1971 42.6131 77.1971 42.3292C77.1971 42.0453 77.2515 41.7733 77.3603 41.5146C77.4691 41.2559 77.619 41.0304 77.8113 40.838C78.0037 40.6457 78.2292 40.4918 78.4879 40.375C78.7466 40.2583 79.0265 40.1999 79.3277 40.1999C79.6288 40.1999 79.9074 40.2583 80.1674 40.375C80.4261 40.4918 80.6516 40.647 80.844 40.838C81.0364 41.0304 81.1863 41.2559 81.2951 41.5146C81.4038 41.7733 81.4582 42.0453 81.4582 42.3292ZM77.4996 58.2912V45.9124H81.1584V58.2912H77.4996ZM88.0238 58.2912H84.3649V45.9124H88.0238V47.4911C88.4085 46.8901 88.9046 46.4218 89.5149 46.0875C90.1251 45.7532 90.8468 45.586 91.6826 45.586C93.1021 45.586 94.2178 46.0371 95.0284 46.9392C95.8389 47.8413 96.2436 49.0777 96.2436 50.6485V58.2912H92.5847V51.5002C92.5847 50.6816 92.3924 50.0515 92.009 49.6084C91.6242 49.1653 91.0737 48.9437 90.3546 48.9437C89.6529 48.9437 89.089 49.1905 88.6632 49.6827C88.2373 50.1762 88.0238 50.8568 88.0238 51.7244V58.2912ZM99.0746 50.273C99.0746 49.5712 99.2126 48.9318 99.4885 48.3561C99.7645 47.7803 100.136 47.2868 100.604 46.8782C101.071 46.4696 101.619 46.1512 102.245 45.9257C102.871 45.7001 103.544 45.5874 104.263 45.5874C104.613 45.5874 104.952 45.6166 105.278 45.6749C105.604 45.7333 105.925 45.8129 106.242 45.9124H110.477V48.368H109.023C109.307 48.969 109.449 49.6044 109.449 50.273C109.449 50.9589 109.311 51.5851 109.035 52.1529C108.759 52.7207 108.388 53.2049 107.919 53.6069C107.451 54.0075 106.904 54.3206 106.278 54.5461C105.652 54.7717 104.979 54.8844 104.26 54.8844C103.508 54.8844 102.832 54.7756 102.231 54.5581C101.762 54.6921 101.529 54.9428 101.529 55.3103C101.529 55.5942 101.632 55.7865 101.842 55.886C102.05 55.9868 102.314 56.0359 102.631 56.0359H106.215C107.584 56.0359 108.674 56.3331 109.485 56.9261C110.295 57.5191 110.7 58.392 110.7 59.5449C110.7 60.2971 110.521 60.9485 110.161 61.499C109.802 62.0509 109.314 62.5059 108.695 62.8641C108.077 63.2236 107.367 63.4863 106.565 63.6535C105.763 63.8206 104.92 63.9042 104.034 63.9042C102.146 63.9042 100.696 63.6415 99.6862 63.1149C98.6753 62.5882 98.1698 61.7577 98.1698 60.6221C98.1698 60.0875 98.3198 59.6033 98.6209 59.1681C98.922 58.733 99.2895 58.3748 99.7233 58.0909C99.3559 57.807 99.0932 57.4859 98.934 57.1264C98.7748 56.7669 98.6965 56.3955 98.6965 56.0107C98.6965 55.3089 98.8504 54.7544 99.1595 54.3445C99.4686 53.9359 99.8321 53.5883 100.25 53.3044C99.8825 52.9037 99.5946 52.4487 99.385 51.9393C99.1781 51.4299 99.0746 50.874 99.0746 50.273ZM107.544 59.8699C107.544 59.5356 107.389 59.2981 107.081 59.1562C106.772 59.0142 106.317 58.9426 105.716 58.9426H102.183C101.565 59.1761 101.256 59.5608 101.256 60.0954C101.256 60.9312 102.199 61.3478 104.087 61.3478C105.222 61.3478 106.083 61.2271 106.668 60.9843C107.252 60.7428 107.544 60.3714 107.544 59.8699ZM104.262 48.3932C103.727 48.3932 103.272 48.5683 102.897 48.9199C102.521 49.2701 102.333 49.7212 102.333 50.273C102.333 50.8408 102.521 51.2972 102.897 51.6381C103.272 51.9804 103.727 52.1515 104.262 52.1515C104.796 52.1515 105.251 51.9804 105.627 51.6381C106.002 51.2959 106.191 50.8408 106.191 50.273C106.191 49.7212 106.002 49.2701 105.627 48.9199C105.251 48.5683 104.796 48.3932 104.262 48.3932Z" fill="white" fill-opacity="0.5"/>
</svg>
