<svg width="137" height="80" viewBox="0 0 137 80" fill="none" xmlns="http://www.w3.org/2000/svg">
<path d="M85.483 24.012C85.483 36.1689 75.6279 46.024 63.471 46.024C51.3141 46.024 41.459 36.1689 41.459 24.012C41.459 11.8551 51.3141 2 63.471 2C75.6279 2 85.483 11.8551 85.483 24.012Z" stroke="white" stroke-opacity="0.5" stroke-width="4"/>
<path d="M53.4414 28.5337L56.5967 28.2578C56.7461 29.5223 57.091 30.5625 57.6312 31.3787C58.183 32.1833 59.0336 32.8385 60.1831 33.3443C61.3325 33.8385 62.6257 34.0857 64.0625 34.0857C65.3384 34.0857 66.4649 33.896 67.442 33.5167C68.419 33.1373 69.1432 32.6201 69.6145 31.9649C70.0973 31.2982 70.3387 30.574 70.3387 29.7924C70.3387 28.9992 70.1088 28.3096 69.649 27.7233C69.1892 27.1256 68.4305 26.6256 67.373 26.2233C66.6948 25.9589 65.1948 25.5508 62.8728 24.9991C60.5509 24.4358 58.9244 23.9071 57.9933 23.4128C56.7864 22.7806 55.884 21.999 55.2863 21.0679C54.7001 20.1253 54.407 19.0735 54.407 17.9126C54.407 16.6367 54.769 15.447 55.4932 14.3435C56.2174 13.2285 57.2749 12.3836 58.6658 11.8089C60.0566 11.2341 61.6027 10.9468 63.3039 10.9468C65.1775 10.9468 66.827 11.2514 68.2524 11.8606C69.6892 12.4583 70.7927 13.3434 71.5628 14.5159C72.333 15.6884 72.7468 17.016 72.8043 18.4988L69.5972 18.7402C69.4248 17.1424 68.8386 15.9355 67.8385 15.1194C66.85 14.3032 65.3844 13.8952 63.4418 13.8952C61.4187 13.8952 59.9417 14.2688 59.0106 15.0159C58.091 15.7516 57.6312 16.6424 57.6312 17.6884C57.6312 18.5965 57.9588 19.3437 58.614 19.9299C59.2577 20.5161 60.936 21.1196 63.6487 21.7403C66.373 22.3495 68.2409 22.8841 69.2524 23.3438C70.7237 24.022 71.81 24.8841 72.5112 25.9302C73.2123 26.9647 73.5629 28.1601 73.5629 29.5165C73.5629 30.8614 73.1778 32.1316 72.4077 33.327C71.6376 34.511 70.5283 35.4363 69.08 36.103C67.6431 36.7582 66.0224 37.0858 64.2177 37.0858C61.9303 37.0858 60.0106 36.7524 58.4589 36.0857C56.9186 35.419 55.7059 34.419 54.8208 33.0856C53.9472 31.7407 53.4874 30.2234 53.4414 28.5337Z" fill="white" fill-opacity="0.5"/>
<path d="M126.354 74.6494L129.109 61.4654H131.096L130.537 64.1593C131.216 63.1414 131.878 62.3882 132.523 61.8999C133.177 61.4116 133.843 61.1675 134.522 61.1675C134.969 61.1675 135.519 61.3289 136.173 61.6516L135.255 63.7372C134.866 63.4559 134.439 63.3152 133.976 63.3152C133.19 63.3152 132.383 63.7538 131.555 64.6311C130.727 65.5083 130.078 67.085 129.606 69.3609L128.489 74.6494H126.354Z" fill="white" fill-opacity="0.5"/>
<path d="M121.883 70.1679L124.068 70.3913C123.754 71.4755 123.03 72.5059 121.896 73.4825C120.77 74.4591 119.425 74.9474 117.861 74.9474C116.884 74.9474 115.986 74.7239 115.167 74.277C114.356 73.8218 113.735 73.1638 113.305 72.3031C112.883 71.4424 112.672 70.4617 112.672 69.3609C112.672 67.9209 113.003 66.5263 113.665 65.1773C114.335 63.82 115.2 62.8144 116.26 62.1606C117.319 61.4985 118.465 61.1675 119.698 61.1675C121.271 61.1675 122.525 61.6558 123.46 62.6324C124.403 63.609 124.875 64.9414 124.875 66.6298C124.875 67.2753 124.817 67.9374 124.701 68.6161H114.993C114.96 68.8726 114.944 69.1044 114.944 69.3113C114.944 70.5444 115.225 71.4879 115.788 72.1417C116.359 72.7873 117.054 73.11 117.873 73.11C118.643 73.11 119.4 72.8576 120.145 72.3528C120.89 71.8479 121.469 71.1196 121.883 70.1679ZM115.353 66.9029H122.752C122.761 66.6712 122.765 66.5056 122.765 66.4063C122.765 65.2808 122.483 64.42 121.921 63.8241C121.358 63.22 120.634 62.9179 119.748 62.9179C118.788 62.9179 117.911 63.2489 117.116 63.911C116.33 64.5731 115.742 65.5704 115.353 66.9029Z" fill="white" fill-opacity="0.5"/>
<path d="M110.375 72.8239L110.002 74.6612C109.464 74.8019 108.943 74.8722 108.438 74.8722C107.544 74.8722 106.833 74.6529 106.303 74.2143C105.906 73.8832 105.707 73.4322 105.707 72.8611C105.707 72.5714 105.815 71.9052 106.03 70.8624L107.631 63.2028H105.856L106.216 61.4648H107.991L108.674 58.2246L111.244 56.6729L110.238 61.4648H112.448L112.076 63.2028H109.878L108.351 70.49C108.161 71.4169 108.066 71.9714 108.066 72.1535C108.066 72.4183 108.14 72.6211 108.289 72.7618C108.446 72.9025 108.699 72.9728 109.046 72.9728C109.543 72.9728 109.986 72.9232 110.375 72.8239Z" fill="white" fill-opacity="0.5"/>
<path d="M89.8672 79.702L93.6784 61.4654H95.7516L95.3667 63.3027C96.1364 62.4999 96.8233 61.9454 97.4275 61.6392C98.0399 61.3247 98.6855 61.1675 99.3641 61.1675C100.622 61.1675 101.665 61.6268 102.493 62.5455C103.32 63.4559 103.734 64.7635 103.734 66.4684C103.734 67.8422 103.506 69.0961 103.051 70.2299C102.596 71.3555 102.037 72.2617 101.375 72.9487C100.713 73.6356 100.043 74.1404 99.3641 74.4632C98.6855 74.786 97.9903 74.9474 97.2785 74.9474C95.6978 74.9474 94.4729 74.1446 93.6039 72.539L92.1142 79.702H89.8672ZM94.3115 69.2616C94.3115 70.2465 94.3819 70.9293 94.5226 71.31C94.7295 71.8479 95.0688 72.2824 95.5405 72.6135C96.0123 72.9445 96.5585 73.11 97.1792 73.11C98.4703 73.11 99.5131 72.3859 100.308 70.9375C101.102 69.4809 101.499 67.9953 101.499 66.4808C101.499 65.3635 101.23 64.5028 100.692 63.8986C100.163 63.2862 99.5007 62.98 98.7062 62.98C98.1351 62.98 97.6054 63.1331 97.1171 63.4393C96.6288 63.7372 96.1737 64.1883 95.7516 64.7925C95.3378 65.3883 94.9943 66.1208 94.7212 66.9898C94.4481 67.8588 94.3115 68.6161 94.3115 69.2616Z" fill="white" fill-opacity="0.5"/>
<path d="M77.2148 69.6464C77.2148 67.0726 77.9721 64.9414 79.4867 63.2531C80.7364 61.8627 82.3751 61.1675 84.4027 61.1675C85.9918 61.1675 87.2704 61.6641 88.2387 62.6572C89.2153 63.6503 89.7036 64.9911 89.7036 66.6794C89.7036 68.194 89.3974 69.6051 88.785 70.9127C88.1725 72.2121 87.2994 73.2094 86.1656 73.9046C85.04 74.5998 83.8524 74.9474 82.6027 74.9474C81.5764 74.9474 80.6412 74.728 79.797 74.2894C78.9611 73.8508 78.3197 73.23 77.8728 72.4273C77.4342 71.6245 77.2148 70.6975 77.2148 69.6464ZM79.4618 69.423C79.4618 70.6644 79.7598 71.6079 80.3557 72.2535C80.9515 72.8907 81.7088 73.2094 82.6275 73.2094C83.1075 73.2094 83.5834 73.1142 84.0551 72.9238C84.5269 72.7252 84.9655 72.4273 85.371 72.03C85.7766 71.6327 86.12 71.1817 86.4014 70.6768C86.6911 70.1637 86.9228 69.6133 87.0966 69.0257C87.3532 68.2064 87.4815 67.4202 87.4815 66.667C87.4815 65.4752 87.1794 64.5524 86.5752 63.8986C85.9793 63.2365 85.2262 62.9055 84.3158 62.9055C83.6123 62.9055 82.9709 63.0751 82.3916 63.4145C81.8123 63.7455 81.2867 64.2338 80.815 64.8794C80.3515 65.5249 80.0081 66.278 79.7846 67.1388C79.5694 67.9912 79.4618 68.7526 79.4618 69.423Z" fill="white" fill-opacity="0.5"/>
<path d="M73.2076 69.8451L75.4546 70.081C74.8918 71.7279 74.089 72.9528 73.0462 73.7556C72.0117 74.5501 70.8323 74.9474 69.5082 74.9474C68.0764 74.9474 66.9136 74.4839 66.0197 73.557C65.1342 72.63 64.6914 71.3348 64.6914 69.6713C64.6914 68.2312 64.9769 66.816 65.548 65.4256C66.1191 64.0352 66.9343 62.98 67.9936 62.2599C69.0612 61.5316 70.2778 61.1675 71.6434 61.1675C73.0586 61.1675 74.1801 61.5689 75.0077 62.3717C75.8353 63.1662 76.2491 64.2214 76.2491 65.5373L74.0394 65.6863C74.0311 64.8504 73.787 64.1966 73.3069 63.7248C72.8352 63.2531 72.2103 63.0172 71.4324 63.0172C70.5303 63.0172 69.7482 63.3027 69.0861 63.8738C68.424 64.4449 67.9026 65.3139 67.5219 66.4808C67.1494 67.6395 66.9632 68.7568 66.9632 69.8327C66.9632 70.9582 67.2115 71.8024 67.7081 72.3652C68.2047 72.928 68.8171 73.2094 69.5454 73.2094C70.2737 73.2094 70.9689 72.9321 71.631 72.3776C72.3014 71.8231 72.8269 70.9789 73.2076 69.8451Z" fill="white" fill-opacity="0.5"/>
<path d="M50.5508 79.7392L50.6873 77.6288C51.1508 77.7612 51.6019 77.8274 52.0405 77.8274C52.4957 77.8274 52.864 77.7239 53.1454 77.517C53.5095 77.2439 53.9068 76.7308 54.3371 75.9777L55.0572 74.6866L52.8598 61.4653H55.0696L56.0627 68.1318C56.2614 69.4477 56.431 70.7636 56.5717 72.0796L62.4685 61.4653H64.8148L56.4103 76.3997C55.5993 77.8564 54.8792 78.8205 54.2502 79.2923C53.6213 79.764 52.8971 79.9999 52.0777 79.9999C51.5563 79.9999 51.0474 79.913 50.5508 79.7392Z" fill="white" fill-opacity="0.5"/>
<path d="M46.1304 72.7373C44.8475 74.2104 43.5068 74.947 42.1081 74.947C40.8584 74.947 39.8156 74.4877 38.9797 73.569C38.1521 72.6421 37.7383 71.3014 37.7383 69.5468C37.7383 67.9412 38.0652 66.4763 38.719 65.1521C39.3811 63.8197 40.2046 62.8224 41.1895 62.1603C42.1826 61.4982 43.1757 61.1671 44.1689 61.1671C45.8076 61.1671 47.0449 61.9575 47.8808 63.5383L49.3705 56.4497H51.6051L47.8063 74.6491H45.7331L46.1304 72.7373ZM39.9729 69.1247C39.9729 70.0434 40.0639 70.7675 40.246 71.2972C40.428 71.8269 40.7384 72.2697 41.177 72.6255C41.6157 72.9731 42.1412 73.1469 42.7537 73.1469C43.7716 73.1469 44.6944 72.6173 45.5221 71.5579C46.6311 70.151 47.1856 68.413 47.1856 66.3439C47.1856 65.3011 46.9125 64.4859 46.3662 63.8983C45.82 63.3107 45.1331 63.0169 44.3054 63.0169C43.7675 63.0169 43.2751 63.1369 42.8281 63.3769C42.3895 63.6169 41.9509 64.0266 41.5122 64.6059C41.0819 65.177 40.7177 65.9053 40.4198 66.7908C40.1218 67.6764 39.9729 68.4543 39.9729 69.1247Z" fill="white" fill-opacity="0.5"/>
<path d="M32.0914 72.2658C30.5107 74.0534 28.8927 74.9473 27.2375 74.9473C26.2195 74.9473 25.396 74.6576 24.767 74.0783C24.1463 73.4907 23.8359 72.7748 23.8359 71.9306C23.8359 71.3761 23.9766 70.4243 24.258 69.0753L25.8471 61.4653H28.094L26.3312 69.8946C26.1822 70.5981 26.1078 71.1444 26.1078 71.5333C26.1078 72.0299 26.2567 72.4189 26.5547 72.7003C26.8609 72.9734 27.3078 73.1099 27.8954 73.1099C28.5244 73.1099 29.1368 72.9568 29.7327 72.6506C30.3369 72.3444 30.8542 71.9306 31.2845 71.4092C31.7232 70.8878 32.079 70.2712 32.3522 69.5595C32.5342 69.1043 32.7453 68.3056 32.9853 67.1635L34.1771 61.4653H36.424L33.6681 74.6493H31.5949L32.0914 72.2658Z" fill="white" fill-opacity="0.5"/>
<path d="M21.2674 72.8239L20.895 74.6612C20.357 74.8019 19.8356 74.8722 19.3308 74.8722C18.4369 74.8722 17.7252 74.6529 17.1955 74.2143C16.7982 73.8832 16.5996 73.4322 16.5996 72.8611C16.5996 72.5714 16.7072 71.9052 16.9224 70.8624L18.5238 63.2028H16.7486L17.1086 61.4648H18.8838L19.5666 58.2246L22.1364 56.6729L21.1308 61.4648H23.3406L22.9681 63.2028H20.7708L19.2439 70.49C19.0535 71.4169 18.9583 71.9714 18.9583 72.1535C18.9583 72.4183 19.0328 72.6211 19.1818 72.7618C19.339 72.9025 19.5915 72.9728 19.9391 72.9728C20.4356 72.9728 20.8784 72.9232 21.2674 72.8239Z" fill="white" fill-opacity="0.5"/>
<path d="M0 68.765L2.38355 68.5415L2.35872 69.1747C2.35872 69.8781 2.5201 70.5237 2.84288 71.1113C3.16565 71.6906 3.69946 72.1417 4.44432 72.4645C5.18918 72.779 6.07473 72.9362 7.10098 72.9362C8.55759 72.9362 9.66661 72.6176 10.428 71.9803C11.1977 71.343 11.5825 70.6147 11.5825 69.7954C11.5825 69.2243 11.3798 68.7029 10.9742 68.2312C10.5604 67.7677 9.43073 67.1387 7.58514 66.3442C6.15336 65.7235 5.17676 65.2476 4.65536 64.9166C3.83602 64.3786 3.23186 63.7951 2.84288 63.1661C2.45389 62.5289 2.2594 61.8047 2.2594 60.9936C2.2594 60.0584 2.51597 59.2143 3.02909 58.4611C3.54221 57.708 4.29121 57.1328 5.27608 56.7355C6.26922 56.3383 7.38651 56.1396 8.62794 56.1396C10.1094 56.1396 11.3591 56.3879 12.3771 56.8845C13.395 57.3811 14.1316 58.0432 14.5868 58.8708C15.0503 59.6984 15.282 60.4888 15.282 61.2419C15.282 61.3164 15.2779 61.4406 15.2696 61.6144L12.9233 61.8006C12.9233 61.2874 12.8778 60.8861 12.7867 60.5964C12.6212 60.0915 12.3646 59.6653 12.017 59.3177C11.6694 58.9701 11.1894 58.6929 10.577 58.486C9.97282 58.2708 9.29418 58.1632 8.54104 58.1632C7.21685 58.1632 6.18646 58.4611 5.44988 59.057C4.8871 59.5122 4.60571 60.1164 4.60571 60.8695C4.60571 61.3164 4.72157 61.7178 4.95331 62.0737C5.18504 62.4213 5.60299 62.7647 6.20715 63.1041C6.63751 63.3441 7.65963 63.82 9.27349 64.5317C10.5811 65.1111 11.4832 65.5662 11.9798 65.8973C12.6419 66.3359 13.1509 66.8697 13.5068 67.4987C13.8626 68.1195 14.0406 68.8271 14.0406 69.6216C14.0406 70.6065 13.7385 71.5168 13.1343 72.3527C12.5384 73.1804 11.7108 73.8218 10.6515 74.2769C9.59212 74.7321 8.37966 74.9597 7.01408 74.9597C4.95331 74.9597 3.2691 74.5128 1.96146 73.619C0.662096 72.7169 0.0082762 71.0989 0 68.765Z" fill="white" fill-opacity="0.5"/>
</svg>
